<svg width="2411" height="2918" viewBox="0 0 2411 2918" fill="none" xmlns="http://www.w3.org/2000/svg">
<path d="M25.8439 1739.45C41.8682 1716.49 102.811 1676.49 127.163 1656.43C-28.7899 1172.29 230.879 640.717 704.919 464.198C706.055 -30.5352 1431.44 -176.268 1650.1 259.542C1678.49 315.942 1695.27 449.183 1705.24 462.81C1710.66 470.254 1843.4 527.79 1870.02 543.814C1996.7 620.529 2145.97 765.883 2219.15 894.455C2226.97 908.082 2250.82 955.903 2257 970.161C2319.96 1117.03 2346.84 1334.93 2332.45 1493.28C2328.92 1532.52 2291.32 1638.89 2293.84 1655.54C2294.47 1659.58 2338.89 1685.95 2355.8 1710.05C2433.65 1821.09 2423.05 1990.79 2357.94 2105.11C2348.48 2121.64 2306.97 2181.06 2294.85 2193.43C2245.64 2243.9 2108.87 2283.52 2099.53 2294.37C2079.85 2317.59 2036.82 2451.84 2005.28 2502.68C1713.94 2971.68 1001.94 3047.13 580.51 2710.37C563.603 2696.87 481.841 2614.6 467.079 2596.94C463.041 2592.14 457.742 2588.36 454.461 2584.32C399.953 2515.55 361.722 2407.17 315.795 2332.1C278.194 2270.65 217.504 2275.82 158.202 2231.16C15.119 2123.28 0.861237 1965.56 0.608887 1802.41C22.311 1789.92 17.7687 1750.93 25.8439 1739.32V1739.45ZM1588.78 415.368C1532.5 19.9349 928.502 0.377772 813.304 364.646C808.383 380.165 792.863 429.626 820.243 422.308C1083.32 351.776 1323.93 343.196 1588.78 415.368ZM2190.38 1635.1C2235.55 1588.42 2236.56 1348.56 2230 1280.8C2116.69 103.841 -10.6207 256.64 192.9 1515.62C201.858 1570.88 232.14 1724.31 293.462 1622.49C327.655 1565.71 369.798 1312.73 381.658 1300.87C642.462 1246.36 901.248 1151.85 1084.33 950.982L1223.25 730.806C1350.05 1061.89 1703.47 1214.44 2027.24 1288.37L2131.08 1663.75C2144.58 1648.6 2183.19 1642.67 2190.51 1635.1H2190.38ZM1235.74 945.052C1222.87 935.841 1213.41 950.225 1205.2 958.426C1152.84 1010.79 1100.98 1088.39 1040.55 1134.06C977.331 1181.88 835.889 1251.41 760.31 1282.44C713.373 1301.75 480.706 1365.72 469.855 1376.44C459.761 1386.41 384.055 1638.38 392.383 1649.74C394.402 1652.39 448.026 1674.09 454.84 1670.81C462.663 1667.03 528.652 1577.95 555.149 1556.37C720.186 1421.49 945.535 1447.73 1069.94 1621.73C1085.97 1644.19 1117.51 1718.38 1122.18 1721.66C1131.27 1728.22 1253.53 1699.07 1286.33 1726.83C1351.06 1423.13 1730.85 1388.18 1909.89 1626.52C1922.38 1643.18 1927.43 1674.72 1929.58 1676.36C1933.61 1679.64 2005.28 1638.76 2030.26 1651L1936.77 1360.04C1668.14 1294.3 1445.06 1183.78 1254.29 983.03C1240.91 969.025 1237.63 946.187 1235.86 945.052H1235.74ZM1599 1553.09C1375.41 1565.58 1292.77 1831.05 1430.81 1991.93C1562.53 2145.48 1793.81 2084.04 1859.67 1903.1C1923.39 1728.35 1785.11 1542.62 1599 1552.96V1553.09ZM597.418 1630.31C439.951 1777.18 538.494 2059.56 750.594 2079.87C1100.98 2113.56 1135.43 1593.72 813.682 1562.81C742.519 1555.99 650.285 1580.97 597.418 1630.31ZM2131.08 2193.3C2211.2 2153.18 2274.54 2092.11 2301.54 2004.54C2325.51 1926.82 2342.04 1748.91 2232.27 1731.75C2135.75 1716.74 2174.23 1869.92 2168.68 1934.64C2161.11 2021.07 2141.42 2107.25 2131.08 2193.3ZM277.816 2193.3C272.39 2111.42 247.408 2028.64 240.342 1947.26C235.8 1894.65 263.306 1748.28 208.419 1738.95C150.253 1729.1 103.82 1769.1 91.5812 1823.99C60.6683 1962.78 145.458 2138.8 277.942 2193.3H277.816ZM348.979 1740.46C317.561 1750.55 325.889 1886.95 327.781 1922.78C357.685 2468.11 725.486 2870.36 1292.39 2823.67C1757.73 2785.32 2051.08 2394.3 2080.23 1947.39C2083 1903.73 2086.92 1745 2036.07 1738.82C1918.09 1724.44 1968.19 1867.77 1935.25 1953.7C1845.92 2186.99 1510.04 2230.15 1355.35 2029.91C1319.14 1982.97 1262.74 1806.58 1219.97 1805.69C1106.03 1803.42 1131.52 1873.7 1099.47 1949.78C977.836 2238.98 565.748 2232.42 457.237 1944.74C431.245 1875.85 445.503 1709.67 348.979 1740.46Z" fill="#0B0A09"/>
<path d="M2190.38 1635.11C2183.06 1642.68 2144.45 1648.61 2130.95 1663.75L2027.11 1288.38C1703.34 1214.44 1349.8 1061.9 1223.12 730.812L1084.2 950.987C901.121 1151.86 642.21 1246.49 381.532 1300.87C369.797 1312.73 327.529 1565.71 293.335 1622.49C232.014 1724.32 201.732 1570.89 192.773 1515.62C-10.6211 256.645 2116.69 103.847 2230.12 1280.81C2236.69 1348.57 2235.68 1588.42 2190.51 1635.11H2190.38Z" fill="#FEFBEB"/>
<path d="M348.978 1740.47C445.502 1709.55 431.244 1875.73 457.236 1944.74C565.747 2232.42 977.835 2238.98 1099.47 1949.79C1131.52 1873.71 1106.16 1803.43 1219.97 1805.7C1262.74 1806.58 1319.14 1982.97 1355.35 2029.91C1510.04 2230.15 1845.92 2187 1935.25 1953.7C1968.18 1867.78 1917.97 1724.57 2036.07 1738.83C2086.92 1745.01 2083.13 1903.74 2080.23 1947.39C2051.21 2394.31 1757.85 2785.45 1292.39 2823.68C725.484 2870.36 357.684 2468.12 327.78 1922.79C325.761 1886.83 317.56 1750.43 348.978 1740.47ZM1129.25 2105.11C1071.58 2119.87 1149.81 2197.22 1236.12 2175.01C1248.1 2171.98 1296.68 2145.87 1298.95 2136.4C1313.21 2076.09 1214.67 2129.59 1204.45 2129.59C1180.47 2129.59 1154.61 2098.68 1129.25 2105.11ZM744.411 2445.28C776.712 2489.57 863.268 2404.53 876.642 2370.08C1052.15 2582.31 1372.64 2593.66 1544.74 2370.08C1562.91 2403.89 1668.9 2489.19 1674.45 2414.12C1675.71 2397.59 1550.8 2215.52 1529.6 2208.45C1414.28 2169.59 1504.87 2299.93 1500.45 2306.49C1495.15 2314.18 1360.02 2403.14 1345.26 2409.95C1241.42 2457.27 1124.96 2437.33 1030.2 2380.3C966.101 2341.69 919.542 2311.79 945.282 2232.17C931.907 2230.53 917.018 2218.8 903.77 2221.19C880.554 2225.36 721.825 2414.37 744.411 2445.28Z" fill="#FD9A72"/>
<path d="M1235.74 945.051C1237.51 946.312 1240.79 969.024 1254.16 983.029C1444.94 1183.77 1668.02 1294.18 1936.64 1360.04L2030.14 1651C2005.16 1638.76 1933.49 1679.64 1929.45 1676.36C1927.43 1674.72 1922.39 1643.18 1909.77 1626.52C1730.73 1388.18 1350.94 1423.13 1286.21 1726.83C1253.41 1699.07 1131.02 1728.09 1122.06 1721.66C1117.51 1718.38 1085.84 1644.19 1069.82 1621.73C945.411 1447.73 720.062 1421.49 555.025 1556.37C528.528 1578.07 462.539 1667.03 454.716 1670.81C447.903 1674.09 394.278 1652.39 392.259 1649.74C383.806 1638.26 459.637 1386.41 469.731 1376.44C480.582 1365.72 713.249 1301.75 760.186 1282.44C835.765 1251.28 977.208 1181.88 1040.42 1134.06C1100.86 1088.26 1152.84 1010.66 1205.08 958.425C1213.16 950.35 1222.62 935.966 1235.61 945.051H1235.74ZM944.276 1287.11C907.307 1263.9 694.323 1340.23 662.022 1373.16C634.263 1401.43 645.241 1443.57 674.892 1445.97C684.733 1446.85 817.091 1377.2 857.089 1366.73C919.167 1350.58 978.469 1387.29 944.276 1287.11ZM1450.11 1348.43C1495.41 1344.65 1535.91 1351.59 1578.94 1364.58C1615.4 1375.69 1747.89 1476.37 1765.17 1417.45C1779.68 1367.86 1618.93 1295.19 1579.44 1288.37C1521.65 1278.41 1432.7 1267.05 1449.99 1348.31L1450.11 1348.43Z" fill="#FD9A72"/>
<path d="M597.415 1630.31C650.282 1580.98 742.516 1555.99 813.679 1562.81C1135.3 1593.72 1100.98 2113.56 750.592 2079.87C538.491 2059.56 439.948 1777.18 597.415 1630.31ZM791.346 1717.25C618.738 1748.29 814.689 2027.39 913.484 1864.49C980.609 1753.84 907.049 1696.43 791.346 1717.25Z" fill="#FD9A72"/>
<path d="M1598.99 1553.09C1785.1 1542.74 1923.39 1728.47 1859.67 1903.23C1793.81 2084.16 1562.4 2145.48 1430.8 1992.05C1292.77 1831.18 1375.41 1565.58 1598.99 1553.22V1553.09ZM1674.57 1754.47C1648.71 1710.43 1499.95 1694.53 1461.97 1744.75C1426.77 1791.31 1470.8 1786.14 1474.71 1798.88C1484.18 1829.54 1470.17 1850.74 1500.33 1884.55C1590.16 1985.62 1711.16 1816.67 1674.57 1754.34V1754.47Z" fill="#FD9A72"/>
<path d="M1588.77 415.366C1323.93 343.194 1083.32 351.774 820.241 422.306C792.861 429.624 808.381 380.29 813.302 364.644C928.5 0.376024 1532.5 19.9332 1588.77 415.366Z" fill="#FEFBEB"/>
<path d="M2131.08 2193.3C2141.42 2107.38 2161.11 2021.2 2168.68 1934.64C2174.36 1869.92 2135.75 1716.74 2232.27 1731.75C2342.04 1748.91 2325.51 1926.82 2301.54 2004.55C2274.54 2092.11 2211.2 2153.05 2131.08 2193.3Z" fill="#FD9A72"/>
<path d="M277.814 2193.3C145.33 2138.8 60.5404 1962.78 91.4533 1823.99C103.692 1768.98 150.125 1728.98 208.292 1738.95C263.178 1748.28 235.672 1894.65 240.214 1947.26C247.28 2028.64 272.262 2111.42 277.688 2193.3H277.814Z" fill="#FD9A72"/>
<path d="M744.414 2445.28C721.828 2414.36 880.557 2225.35 903.773 2221.19C916.895 2218.79 931.91 2230.53 945.285 2232.17C919.545 2311.78 966.104 2341.69 1030.2 2380.3C1124.96 2437.33 1241.42 2457.26 1345.26 2409.95C1360.02 2403.13 1495.16 2314.18 1500.46 2306.48C1504.87 2300.05 1414.28 2169.58 1529.6 2208.44C1550.8 2215.64 1675.71 2397.58 1674.45 2414.11C1668.9 2489.18 1562.91 2404.02 1544.74 2370.07C1372.64 2593.66 1052.28 2582.3 876.645 2370.07C863.271 2404.52 776.715 2489.56 744.414 2445.28Z" fill="#0B0A09"/>
<path d="M1129.25 2105.11C1154.61 2098.67 1180.48 2129.58 1204.45 2129.58C1214.67 2129.58 1313.21 2076.09 1298.96 2136.4C1296.68 2145.86 1248.11 2171.85 1236.12 2175.01C1149.82 2197.09 1071.59 2119.87 1129.25 2105.11Z" fill="#0B0A09"/>
<path d="M944.272 1287.12C978.592 1387.42 919.164 1350.58 857.085 1366.73C817.088 1377.2 684.73 1446.85 674.888 1445.97C645.237 1443.45 634.134 1401.43 662.018 1373.17C694.445 1340.24 907.303 1263.9 944.272 1287.12Z" fill="#0B0A09"/>
<path d="M1450.11 1348.44C1432.82 1267.18 1521.78 1278.41 1579.57 1288.5C1618.93 1295.32 1779.81 1367.99 1765.3 1417.58C1748.01 1476.51 1615.53 1375.69 1579.06 1364.71C1536.04 1351.59 1495.41 1344.78 1450.24 1348.56L1450.11 1348.44Z" fill="#0B0A09"/>
<path d="M791.348 1717.25C907.051 1696.43 980.611 1753.84 913.486 1864.5C814.69 2027.39 618.74 1748.29 791.348 1717.25Z" fill="#0B0A09"/>
<path d="M1674.57 1754.47C1711.16 1816.8 1590.16 1985.75 1500.33 1884.68C1470.17 1850.87 1484.17 1829.54 1474.71 1799.01C1470.8 1786.27 1426.64 1791.44 1461.97 1744.88C1499.95 1694.66 1648.71 1710.43 1674.57 1754.6V1754.47Z" fill="#0B0A09"/>
</svg>
